<svg xmlns="http://www.w3.org/2000/svg" viewBox="0 0 129.47 51.89"><defs><style>.cls-1{fill:none;stroke:#fff;stroke-miterlimit:10;stroke-width:0.25px;}.cls-2{fill:#fff;}</style></defs><title>Asset 1</title><g id="Layer_2" data-name="Layer 2"><g id="Layer_1-2" data-name="Layer 1"><path class="cls-1" d="M6.92,47.71c2.26,0,3.08-1.36,3.08-3.42V36.58h5.12v8.11c0,4.22-2.85,7.07-8.12,7.07-3.17,0-5.31-1-6.82-2.77l3.31-3A4.08,4.08,0,0,0,6.92,47.71Z"/><path class="cls-1" d="M29.15,48.74H21.8l-1.19,2.54H15.27l7.46-14.7h5.56l7.46,14.7h-5.4ZM27.6,45.42l-2.12-4.53-2.12,4.53Z"/><path class="cls-1" d="M38.54,36.58l3.68,5.84,3.65-5.84H51.5l-6.74,9.81v4.89H39.63V46.39l-6.74-9.81Z"/><path class="cls-1" d="M70.75,43.93c0,4.64-3.65,7.35-9.36,7.35H52.82V36.58h8.57C67.1,36.58,70.75,39.27,70.75,43.93Zm-5.23,0c0-2.22-1.74-3.44-4.55-3.44h-3v6.89h3C63.78,47.38,65.52,46.16,65.52,43.93Z"/><path class="cls-1" d="M89.17,47.59v3.69H73V36.58H88.94v3.7H78v1.87h8.88v3.4H78v2Z"/><path class="cls-1" d="M109.45,36.58v14.7H105l-8.52-8.8v8.8H91.5V36.58h5.42l7.58,8v-8Z"/><path class="cls-2" d="M16.92,29.21c2.27,0,3.09-1.36,3.09-3.42V18.08h5.12v8.11c0,4.22-2.85,7.08-8.12,7.08a8.43,8.43,0,0,1-6.83-2.78l3.32-3A4.06,4.06,0,0,0,16.92,29.21Z"/><path class="cls-2" d="M39.16,30.24H31.81l-1.2,2.54H25.28l7.46-14.7H38.3l7.45,14.7H40.36Zm-1.55-3.32-2.12-4.53-2.13,4.53Z"/><path class="cls-2" d="M48.55,18.08l3.67,5.84,3.66-5.84H61.5l-6.74,9.81v4.89H49.64V27.89L42.9,18.08Z"/><path class="cls-2" d="M80.76,25.43c0,4.64-3.65,7.35-9.36,7.35H62.83V18.08H71.4C77.11,18.08,80.76,20.77,80.76,25.43Zm-5.23,0C75.53,23.21,73.79,22,71,22H68v6.89h3C73.79,28.88,75.53,27.66,75.53,25.43Z"/><path class="cls-2" d="M99.18,29.09v3.69H83V18.08H99v3.7H88.05v1.87h8.88v3.4H88.05v2Z"/><path class="cls-2" d="M119.46,18.08v14.7H115L106.44,24v8.8h-4.93V18.08h5.42l7.58,8v-8Z"/><path class="cls-2" d="M26.93,11.13C29.2,11.13,30,9.76,30,7.71V0h5.12V8.1c0,4.22-2.86,7.08-8.12,7.08a8.44,8.44,0,0,1-6.83-2.77l3.32-3A4.09,4.09,0,0,0,26.93,11.13Z"/><path class="cls-2" d="M49.17,12.16H41.82l-1.2,2.54H35.29L42.74,0h5.57l7.45,14.7h-5.4ZM47.61,8.84,45.49,4.3,43.37,8.84Z"/><path class="cls-2" d="M58.56,0l3.67,5.84L65.88,0h5.63L64.77,9.81V14.7H59.65V9.81L52.91,0Z"/><path class="cls-2" d="M90.77,7.35c0,4.64-3.65,7.35-9.37,7.35H72.84V0H81.4C87.12,0,90.77,2.69,90.77,7.35Zm-5.23,0c0-2.23-1.74-3.44-4.56-3.44H78v6.88h3C83.8,10.79,85.54,9.57,85.54,7.35Z"/><path class="cls-2" d="M109.19,11v3.7H93V0H109V3.7H98.06V5.56h8.88V9H98.06v2Z"/><path class="cls-2" d="M129.47,0V14.7H125l-8.53-8.8v8.8h-4.93V0h5.42l7.58,8V0Z"/></g></g></svg>